<svg width="1762" height="263" viewBox="0 0 1762 263" fill="none" xmlns="http://www.w3.org/2000/svg">
<path d="M1755.67 131.924C1755.67 115.234 1734.74 99.4167 1702.66 89.608C1710.06 56.9464 1706.77 30.961 1692.27 22.6415C1688.93 20.69 1685.02 19.7656 1680.76 19.7656V31.2177C1683.12 31.2177 1685.02 31.6799 1686.62 32.553C1693.61 36.5586 1696.64 51.811 1694.28 71.4284C1693.71 76.2558 1692.79 81.3399 1691.66 86.5267C1681.58 84.0617 1670.58 82.1616 1659.01 80.929C1652.07 71.4284 1644.87 62.8008 1637.62 55.2517C1654.38 39.6913 1670.11 31.1664 1680.81 31.1664V19.7143C1666.67 19.7143 1648.16 29.7798 1629.45 47.2404C1610.73 29.8825 1592.22 19.9197 1578.08 19.9197V31.3718C1588.72 31.3718 1604.51 39.8453 1621.27 55.3031C1614.07 62.8522 1606.87 71.4284 1600.04 80.929C1588.42 82.1616 1577.41 84.0617 1567.34 86.5781C1566.15 81.4426 1565.28 76.4612 1564.66 71.6852C1562.25 52.0677 1565.23 36.8154 1572.17 32.7584C1573.71 31.834 1575.72 31.4232 1578.08 31.4232V19.9711C1573.76 19.9711 1569.86 20.8954 1566.46 22.8469C1552.02 31.1664 1548.78 57.1005 1556.23 89.6593C1524.25 99.5194 1503.43 115.285 1503.43 131.924C1503.43 148.614 1524.35 164.432 1556.44 174.24C1549.03 206.902 1552.32 232.887 1566.82 241.207C1570.16 243.158 1574.07 244.083 1578.39 244.083C1592.53 244.083 1611.04 234.017 1629.75 216.557C1648.47 233.915 1666.98 243.877 1681.12 243.877C1685.44 243.877 1689.34 242.953 1692.74 241.002C1707.18 232.682 1710.42 206.748 1702.97 174.189C1734.84 164.38 1755.67 148.563 1755.67 131.924ZM1688.73 97.6707C1686.82 104.295 1684.46 111.126 1681.78 117.956C1679.68 113.847 1677.47 109.739 1675.05 105.631C1672.68 101.522 1670.17 97.5166 1667.65 93.6136C1674.95 94.6921 1681.99 96.0273 1688.73 97.6707ZM1665.18 152.363C1661.17 159.296 1657.05 165.87 1652.79 171.981C1645.13 172.648 1637.36 173.008 1629.55 173.008C1621.78 173.008 1614.02 172.648 1606.41 172.032C1602.14 165.921 1597.98 159.399 1593.97 152.517C1590.06 145.79 1586.51 138.96 1583.28 132.078C1586.46 125.197 1590.06 118.315 1593.92 111.588C1597.93 104.655 1602.04 98.0815 1606.31 91.9703C1613.97 91.3027 1621.73 90.9432 1629.55 90.9432C1637.31 90.9432 1645.08 91.3027 1652.68 91.9189C1656.95 98.0302 1661.12 104.552 1665.13 111.434C1669.03 118.161 1672.58 124.991 1675.82 131.873C1672.58 138.754 1669.03 145.636 1665.18 152.363ZM1681.78 145.687C1684.56 152.569 1686.93 159.45 1688.88 166.126C1682.14 167.77 1675.05 169.156 1667.7 170.235C1670.22 166.281 1672.74 162.223 1675.1 158.064C1677.47 153.955 1679.68 149.796 1681.78 145.687ZM1629.65 200.483C1624.87 195.553 1620.09 190.058 1615.36 184.049C1619.98 184.255 1624.71 184.409 1629.5 184.409C1634.33 184.409 1639.11 184.306 1643.79 184.049C1639.16 190.058 1634.38 195.553 1629.65 200.483ZM1591.4 170.235C1584.1 169.156 1577.05 167.821 1570.32 166.178C1572.22 159.553 1574.59 152.723 1577.26 145.893C1579.37 150.001 1581.58 154.109 1583.99 158.218C1586.41 162.326 1588.88 166.332 1591.4 170.235ZM1629.39 63.3658C1634.18 68.2958 1638.96 73.7907 1643.69 79.7992C1639.06 79.5938 1634.33 79.4398 1629.55 79.4398C1624.72 79.4398 1619.93 79.5425 1615.25 79.7992C1619.88 73.7907 1624.66 68.2958 1629.39 63.3658ZM1591.35 93.6136C1588.83 97.568 1586.31 101.625 1583.94 105.785C1581.58 109.893 1579.37 114.001 1577.26 118.11C1574.48 111.228 1572.12 104.347 1570.16 97.6707C1576.9 96.0787 1583.99 94.6921 1591.35 93.6136ZM1544.82 157.91C1526.62 150.155 1514.84 139.987 1514.84 131.924C1514.84 123.862 1526.62 113.642 1544.82 105.939C1549.24 104.039 1554.07 102.344 1559.06 100.752C1561.99 110.817 1565.85 121.294 1570.63 132.027C1565.9 142.709 1562.09 153.134 1559.21 163.148C1554.12 161.556 1549.29 159.81 1544.82 157.91ZM1572.48 231.296C1565.49 227.29 1562.45 212.037 1564.82 192.42C1565.38 187.593 1566.31 182.509 1567.44 177.322C1577.52 179.787 1588.52 181.687 1600.09 182.919C1607.03 192.42 1614.23 201.048 1621.48 208.597C1604.71 224.157 1588.98 232.682 1578.29 232.682C1575.97 232.631 1574.02 232.169 1572.48 231.296ZM1694.43 192.163C1696.85 211.781 1693.87 227.033 1686.93 231.09C1685.38 232.014 1683.38 232.425 1681.01 232.425C1670.37 232.425 1654.59 223.952 1637.83 208.494C1645.02 200.945 1652.22 192.369 1659.06 182.868C1670.68 181.636 1681.68 179.735 1691.76 177.219C1692.94 182.406 1693.87 187.387 1694.43 192.163ZM1714.23 157.91C1709.81 159.81 1704.97 161.505 1699.99 163.097C1697.05 153.031 1693.2 142.555 1688.42 131.822C1693.15 121.14 1696.95 110.715 1699.83 100.701C1704.92 102.293 1709.75 104.039 1714.28 105.939C1732.48 113.693 1744.25 123.862 1744.25 131.924C1744.2 139.987 1732.43 150.206 1714.23 157.91Z" fill="#FB6161"/>
<path d="M1629.78 155.938C1642.76 155.938 1653.28 145.431 1653.28 132.469C1653.28 119.507 1642.76 109 1629.78 109C1616.81 109 1606.29 119.507 1606.29 132.469C1606.29 145.431 1616.81 155.938 1629.78 155.938Z" fill="#FB6161"/>
<path d="M117.39 262.5C111.09 262.5 104.86 260.68 98.7 257.04C92.68 253.54 84.98 248.08 75.6 240.66C68.6 235.06 62.58 230.51 57.54 227.01C52.64 223.65 47.25 220.78 41.37 218.4C35.63 216.02 29.75 214.83 23.73 214.83C21.63 214.83 20.02 214.9 18.9 215.04L50.19 69.51C40.81 73.29 33.53 79.1 28.35 86.94C23.31 94.64 20.79 104.09 20.79 115.29C20.79 120.47 21.28 124.11 22.26 126.21C23.24 128.17 23.73 129.29 23.73 129.57C16.17 129.57 10.5 128.03 6.72 124.95C3.08 121.73 1.26 116.48 1.26 109.2C1.26 100.24 4.9 91.56 12.18 83.16C19.6 74.62 29.05 67.76 40.53 62.58C52.01 57.26 63.49 54.6 74.97 54.6C76.93 54.6 79.73 54.74 83.37 55.02L51.03 205.8C54.95 206.78 58.94 208.18 63 210C67.2 211.96 72.24 214.55 78.12 217.77C87.22 222.67 94.99 226.38 101.43 228.9C107.87 231.56 114.59 232.89 121.59 232.89C127.89 232.89 133.77 231.77 139.23 229.53C138.11 239.75 135.59 247.8 131.67 253.68C127.89 259.56 123.13 262.5 117.39 262.5ZM109.6 211.26C99.2403 211.26 91.1903 208.6 85.4503 203.28C79.7103 197.82 76.8403 189.35 76.8403 177.87C76.8403 168.21 78.7303 157.57 82.5103 145.95C86.2903 134.33 92.4503 124.32 100.99 115.92C109.53 107.38 120.38 103.11 133.54 103.11C148.94 103.11 156.64 109.83 156.64 123.27C156.64 131.11 154.4 138.32 149.92 144.9C145.44 151.48 139.49 156.8 132.07 160.86C124.65 164.78 116.74 167.02 108.34 167.58C108.06 171.78 107.92 174.58 107.92 175.98C107.92 182.84 109.11 187.53 111.49 190.05C113.87 192.43 117.72 193.62 123.04 193.62C130.6 193.62 137.04 191.87 142.36 188.37C147.82 184.87 153.77 179.55 160.21 172.41H167.35C151.81 198.31 132.56 211.26 109.6 211.26ZM110.02 157.5C115.2 157.22 120.1 155.4 124.72 152.04C129.48 148.68 133.26 144.41 136.06 139.23C139 134.05 140.47 128.59 140.47 122.85C140.47 117.11 138.72 114.24 135.22 114.24C130.18 114.24 125.21 118.65 120.31 127.47C115.55 136.29 112.12 146.3 110.02 157.5ZM185.366 211.26C177.386 211.26 170.736 208.53 165.416 203.07C160.096 197.61 157.436 189.07 157.436 177.45C157.436 167.09 159.466 156.24 163.526 144.9C167.726 133.42 173.886 123.76 182.006 115.92C190.266 107.94 200.066 103.95 211.406 103.95C217.146 103.95 221.416 104.93 224.216 106.89C227.016 108.85 228.416 111.44 228.416 114.66V116.13L230.726 105H260.966L245.846 176.4C245.286 178.5 245.006 180.74 245.006 183.12C245.006 189.14 247.876 192.15 253.616 192.15C257.536 192.15 260.896 190.33 263.696 186.69C266.636 183.05 268.946 178.29 270.626 172.41H279.446C274.266 187.53 267.826 197.82 260.126 203.28C252.566 208.6 244.936 211.26 237.236 211.26C231.356 211.26 226.596 209.65 222.956 206.43C219.456 203.07 217.356 198.24 216.656 191.94C212.596 197.68 208.046 202.37 203.006 206.01C198.106 209.51 192.226 211.26 185.366 211.26ZM199.016 190.89C202.516 190.89 205.946 189.28 209.306 186.06C212.806 182.7 215.186 178.15 216.446 172.41L226.526 124.95C226.526 123.13 225.826 121.38 224.426 119.7C223.026 117.88 220.856 116.97 217.916 116.97C212.316 116.97 207.276 120.26 202.796 126.84C198.316 133.28 194.816 141.12 192.296 150.36C189.776 159.46 188.516 167.51 188.516 174.51C188.516 181.51 189.496 185.99 191.456 187.95C193.556 189.91 196.076 190.89 199.016 190.89ZM284.983 105H315.223L312.493 118.02C317.253 113.82 321.523 110.6 325.303 108.36C329.223 106.12 333.423 105 337.903 105C342.383 105 345.883 106.54 348.403 109.62C351.063 112.7 352.393 116.41 352.393 120.75C352.393 124.81 351.063 128.38 348.403 131.46C345.743 134.54 342.033 136.08 337.273 136.08C334.193 136.08 332.093 135.38 330.973 133.98C329.993 132.44 329.223 130.27 328.663 127.47C328.243 125.65 327.823 124.32 327.403 123.48C326.983 122.64 326.213 122.22 325.093 122.22C322.153 122.22 319.633 122.85 317.533 124.11C315.573 125.23 312.983 127.26 309.763 130.2L292.963 210H262.723L284.983 105ZM425.468 211.26C416.928 211.26 410.628 209.02 406.568 204.54C402.648 199.92 400.688 194.25 400.688 187.53C400.688 184.59 401.038 181.3 401.738 177.66C402.438 173.88 403.138 170.24 403.838 166.74C404.678 163.24 405.238 161 405.518 160.02C406.638 155.12 407.688 150.29 408.668 145.53C409.648 140.77 410.138 136.92 410.138 133.98C410.138 126.84 407.618 123.27 402.578 123.27C398.938 123.27 395.718 125.09 392.918 128.73C390.118 132.23 387.878 136.85 386.198 142.59L371.918 210H341.678L363.938 105H394.178L391.868 115.92C398.868 108.08 407.058 104.16 416.438 104.16C423.578 104.16 429.248 106.12 433.448 110.04C437.648 113.96 439.748 119.91 439.748 127.89C439.748 131.95 439.258 136.5 438.278 141.54C437.298 146.44 435.898 152.46 434.078 159.6C432.958 163.94 431.908 168.21 430.928 172.41C430.088 176.47 429.668 179.69 429.668 182.07C429.668 184.87 430.298 187.04 431.558 188.58C432.818 190.12 434.988 190.89 438.068 190.89C442.268 190.89 445.628 189.42 448.148 186.48C450.668 183.4 453.188 178.71 455.708 172.41H464.528C459.348 187.81 453.328 198.17 446.468 203.49C439.748 208.67 432.748 211.26 425.468 211.26ZM490.754 93.66C486.134 93.66 482.214 92.05 478.994 88.83C475.774 85.61 474.164 81.69 474.164 77.07C474.164 72.45 475.774 68.53 478.994 65.31C482.214 61.95 486.134 60.27 490.754 60.27C495.374 60.27 499.294 61.95 502.514 65.31C505.874 68.53 507.554 72.45 507.554 77.07C507.554 81.69 505.874 85.61 502.514 88.83C499.294 92.05 495.374 93.66 490.754 93.66ZM476.474 211.26C469.754 211.26 464.294 209.16 460.094 204.96C456.034 200.76 454.004 194.46 454.004 186.06C454.004 182.56 454.564 178.01 455.684 172.41L469.964 105H500.204L485.084 176.4C484.524 178.5 484.244 180.74 484.244 183.12C484.244 185.92 484.874 187.95 486.134 189.21C487.534 190.33 489.774 190.89 492.854 190.89C496.914 190.89 500.694 189.21 504.194 185.85C507.694 182.35 510.214 177.87 511.754 172.41H520.574C515.394 187.53 508.744 197.82 500.624 203.28C492.504 208.6 484.454 211.26 476.474 211.26ZM587.48 211.26C578.94 211.26 572.64 209.02 568.58 204.54C564.66 199.92 562.7 194.25 562.7 187.53C562.7 184.59 563.05 181.3 563.75 177.66C564.45 173.88 565.15 170.24 565.85 166.74C566.69 163.24 567.25 161 567.53 160.02C568.65 155.12 569.7 150.29 570.68 145.53C571.66 140.77 572.15 136.92 572.15 133.98C572.15 126.84 569.63 123.27 564.59 123.27C560.95 123.27 557.73 125.09 554.93 128.73C552.13 132.23 549.89 136.85 548.21 142.59L533.93 210H503.69L525.95 105H556.19L553.88 115.92C560.88 108.08 569.07 104.16 578.45 104.16C585.59 104.16 591.26 106.12 595.46 110.04C599.66 113.96 601.76 119.91 601.76 127.89C601.76 131.95 601.27 136.5 600.29 141.54C599.31 146.44 597.91 152.46 596.09 159.6C594.97 163.94 593.92 168.21 592.94 172.41C592.1 176.47 591.68 179.69 591.68 182.07C591.68 184.87 592.31 187.04 593.57 188.58C594.83 190.12 597 190.89 600.08 190.89C604.28 190.89 607.64 189.42 610.16 186.48C612.68 183.4 615.2 178.71 617.72 172.41H626.54C621.36 187.81 615.34 198.17 608.48 203.49C601.76 208.67 594.76 211.26 587.48 211.26ZM654.655 262.5C648.075 262.5 642.265 260.33 637.225 255.99C632.325 251.79 629.875 246.4 629.875 239.82C629.875 233.66 631.415 228.62 634.495 224.7C637.575 220.78 641.565 217.7 646.465 215.46C651.365 213.22 657.945 210.84 666.205 208.32L668.095 199.5C660.815 207.34 652.415 211.26 642.895 211.26C634.915 211.26 628.265 208.53 622.945 203.07C617.625 197.61 614.965 189.07 614.965 177.45C614.965 167.09 616.995 156.24 621.055 144.9C625.255 133.42 631.415 123.76 639.535 115.92C647.795 107.94 657.595 103.95 668.935 103.95C674.675 103.95 678.945 104.93 681.745 106.89C684.545 108.85 685.945 111.44 685.945 114.66V115.08L688.045 105H718.495L692.875 226.8C690.075 240.24 685.105 249.55 677.965 254.73C670.965 259.91 663.195 262.5 654.655 262.5ZM656.545 190.89C659.765 190.89 662.985 189.56 666.205 186.9C669.565 184.1 671.945 180.18 673.345 175.14L684.055 124.32C682.935 119.42 680.065 116.97 675.445 116.97C669.845 116.97 664.805 120.26 660.325 126.84C655.845 133.28 652.345 141.12 649.825 150.36C647.305 159.46 646.045 167.51 646.045 174.51C646.045 181.51 647.025 185.99 648.985 187.95C651.085 189.91 653.605 190.89 656.545 190.89ZM649.825 243.81C652.345 243.81 654.725 242.48 656.965 239.82C659.205 237.3 660.955 233.17 662.215 227.43L664.735 215.04C657.315 217.56 651.575 220.5 647.515 223.86C643.455 227.22 641.425 231.56 641.425 236.88C641.425 238.56 642.265 240.1 643.945 241.5C645.625 243.04 647.585 243.81 649.825 243.81ZM855.681 213.57C844.761 213.57 839.301 208.88 839.301 199.5C839.301 196.42 839.721 192.92 840.561 189C841.541 184.94 842.871 179.76 844.551 173.46C846.511 166.88 847.981 161.28 848.961 156.66C849.941 152.04 850.431 147.91 850.431 144.27C850.431 134.75 846.231 129.99 837.831 129.99C835.591 129.99 833.281 130.27 830.901 130.83L814.101 210H783.861L812.421 76.44L843.501 72.24L833.211 120.75H834.891C840.351 120.75 845.391 118.86 850.011 115.08C854.631 111.3 858.201 106.61 860.721 101.01C863.381 95.27 864.711 89.67 864.711 84.21C864.711 77.77 862.751 72.52 858.831 68.46C855.051 64.26 849.311 62.16 841.611 62.16C830.271 62.16 820.331 64.19 811.791 68.25C803.251 72.31 796.601 78.19 791.841 85.89C787.221 93.59 784.911 102.69 784.911 113.19C784.911 118.37 785.401 122.01 786.381 124.11C787.361 126.07 787.851 127.19 787.851 127.47C780.291 127.47 774.621 125.93 770.841 122.85C767.201 119.63 765.381 114.38 765.381 107.1C765.381 98.14 769.021 89.46 776.301 81.06C783.721 72.52 793.171 65.66 804.651 60.48C816.131 55.16 827.611 52.5 839.091 52.5C849.591 52.5 858.411 54.04 865.551 57.12C872.691 60.2 878.011 64.33 881.511 69.51C885.011 74.55 886.761 80.08 886.761 86.1C886.761 92.68 884.731 99.26 880.671 105.84C876.611 112.42 871.081 117.81 864.081 122.01C869.401 123.55 873.111 126.14 875.211 129.78C877.451 133.28 878.571 137.69 878.571 143.01C878.571 147.07 878.081 151.41 877.101 156.03C876.121 160.51 874.721 166.11 872.901 172.83C871.781 177.17 870.731 181.44 869.751 185.64C868.771 189.84 868.281 193.34 868.281 196.14C868.281 199.36 868.981 202.23 870.381 204.75C871.921 207.27 873.951 209.02 876.471 210C867.931 212.38 861.001 213.57 855.681 213.57ZM920.274 211.26C909.914 211.26 901.864 208.6 896.124 203.28C890.384 197.82 887.514 189.35 887.514 177.87C887.514 168.21 889.404 157.57 893.184 145.95C896.964 134.33 903.124 124.32 911.664 115.92C920.204 107.38 931.054 103.11 944.214 103.11C959.614 103.11 967.314 109.83 967.314 123.27C967.314 131.11 965.074 138.32 960.594 144.9C956.114 151.48 950.164 156.8 942.744 160.86C935.324 164.78 927.414 167.02 919.014 167.58C918.734 171.78 918.594 174.58 918.594 175.98C918.594 182.84 919.784 187.53 922.164 190.05C924.544 192.43 928.394 193.62 933.714 193.62C941.274 193.62 947.714 191.87 953.034 188.37C958.494 184.87 964.444 179.55 970.884 172.41H978.024C962.484 198.31 943.234 211.26 920.274 211.26ZM920.694 157.5C925.874 157.22 930.774 155.4 935.394 152.04C940.154 148.68 943.934 144.41 946.734 139.23C949.674 134.05 951.144 128.59 951.144 122.85C951.144 117.11 949.394 114.24 945.894 114.24C940.854 114.24 935.884 118.65 930.984 127.47C926.224 136.29 922.794 146.3 920.694 157.5ZM996.04 211.26C988.06 211.26 981.41 208.53 976.09 203.07C970.77 197.61 968.11 189.07 968.11 177.45C968.11 167.09 970.14 156.24 974.2 144.9C978.4 133.42 984.56 123.76 992.68 115.92C1000.94 107.94 1010.74 103.95 1022.08 103.95C1027.82 103.95 1032.09 104.93 1034.89 106.89C1037.69 108.85 1039.09 111.44 1039.09 114.66V116.13L1041.4 105H1071.64L1056.52 176.4C1055.96 178.5 1055.68 180.74 1055.68 183.12C1055.68 189.14 1058.55 192.15 1064.29 192.15C1068.21 192.15 1071.57 190.33 1074.37 186.69C1077.31 183.05 1079.62 178.29 1081.3 172.41H1090.12C1084.94 187.53 1078.5 197.82 1070.8 203.28C1063.24 208.6 1055.61 211.26 1047.91 211.26C1042.03 211.26 1037.27 209.65 1033.63 206.43C1030.13 203.07 1028.03 198.24 1027.33 191.94C1023.27 197.68 1018.72 202.37 1013.68 206.01C1008.78 209.51 1002.9 211.26 996.04 211.26ZM1009.69 190.89C1013.19 190.89 1016.62 189.28 1019.98 186.06C1023.48 182.7 1025.86 178.15 1027.12 172.41L1037.2 124.95C1037.2 123.13 1036.5 121.38 1035.1 119.7C1033.7 117.88 1031.53 116.97 1028.59 116.97C1022.99 116.97 1017.95 120.26 1013.47 126.84C1008.99 133.28 1005.49 141.12 1002.97 150.36C1000.45 159.46 999.19 167.51 999.19 174.51C999.19 181.51 1000.17 185.99 1002.13 187.95C1004.23 189.91 1006.75 190.89 1009.69 190.89ZM1111.41 211.26C1101.05 211.26 1093 208.6 1087.26 203.28C1081.52 197.82 1078.65 189.35 1078.65 177.87C1078.65 168.21 1080.54 157.57 1084.32 145.95C1088.24 134.33 1094.4 124.32 1102.8 115.92C1111.34 107.38 1122.12 103.11 1135.14 103.11C1143.54 103.11 1149.49 104.93 1152.99 108.57C1156.63 112.21 1158.45 116.83 1158.45 122.43C1158.45 127.33 1157.4 131.11 1155.3 133.77C1153.2 136.43 1150.54 137.76 1147.32 137.76C1144.94 137.76 1142.49 136.92 1139.97 135.24C1141.65 130.62 1142.49 126.49 1142.49 122.85C1142.49 120.19 1142 118.09 1141.02 116.55C1140.04 115.01 1138.57 114.24 1136.61 114.24C1132.41 114.24 1128.21 117.67 1124.01 124.53C1119.81 131.39 1116.38 139.72 1113.72 149.52C1111.06 159.32 1109.73 168.14 1109.73 175.98C1109.73 182.84 1110.92 187.53 1113.3 190.05C1115.68 192.43 1119.53 193.62 1124.85 193.62C1132.41 193.62 1138.85 191.87 1144.17 188.37C1149.63 184.87 1155.58 179.55 1162.02 172.41H1169.16C1153.62 198.31 1134.37 211.26 1111.41 211.26ZM1181.71 211.26C1174.57 211.26 1169.25 209.09 1165.75 204.75C1162.39 200.41 1160.71 194.67 1160.71 187.53C1160.71 183.89 1161.13 180.18 1161.97 176.4L1175.41 113.4H1168.48L1170.16 105H1177.09L1183.39 76.02L1214.47 71.82C1213.21 77.14 1212.51 80.29 1212.37 81.27C1211.39 85.19 1209.71 93.1 1207.33 105H1219.93L1218.25 113.4H1205.65L1192.21 176.4C1191.51 179.48 1191.16 181.93 1191.16 183.75C1191.16 188.79 1193.61 191.31 1198.51 191.31C1201.03 191.31 1202.85 191.1 1203.97 190.68C1201.17 198.8 1197.88 204.26 1194.1 207.06C1190.32 209.86 1186.19 211.26 1181.71 211.26ZM1254.66 253.47C1244.72 253.47 1237.02 250.74 1231.56 245.28C1226.24 239.96 1223.58 232.82 1223.58 223.86C1223.58 216.3 1225.89 209.72 1230.51 204.12C1235.13 198.52 1241.36 195.72 1249.2 195.72C1255.22 195.72 1260.12 196.63 1263.9 198.45C1267.82 200.13 1269.78 203.91 1269.78 209.79C1269.78 212.31 1269.36 215.11 1268.52 218.19C1266 216.09 1263.83 214.62 1262.01 213.78C1260.19 213.08 1258.16 212.73 1255.92 212.73C1251.3 212.73 1247.66 214.27 1245 217.35C1242.48 220.43 1241.22 224.07 1241.22 228.27C1241.22 233.17 1242.69 236.81 1245.63 239.19C1248.57 241.71 1251.86 242.97 1255.5 242.97C1258.86 242.97 1261.66 242.27 1263.9 240.87C1266.28 239.61 1268.38 237.09 1270.2 233.31C1272.02 229.67 1273.77 224.28 1275.45 217.14L1308.42 67.2C1299.04 70.98 1291.76 76.79 1286.58 84.63C1281.4 92.47 1278.81 101.99 1278.81 113.19C1278.81 118.37 1279.3 122.01 1280.28 124.11C1281.26 126.07 1281.75 127.19 1281.75 127.47C1274.19 127.47 1268.52 125.93 1264.74 122.85C1261.1 119.63 1259.28 114.38 1259.28 107.1C1259.28 98.14 1262.92 89.46 1270.2 81.06C1277.62 72.52 1287.07 65.66 1298.55 60.48C1310.03 55.16 1321.51 52.5 1332.99 52.5H1341.39L1309.89 201.6C1306.25 218.82 1300.23 231.77 1291.83 240.45C1283.43 249.13 1271.04 253.47 1254.66 253.47ZM1384.05 213.78C1375.23 213.78 1367.46 212.24 1360.74 209.16C1354.02 206.08 1348.84 201.81 1345.2 196.35C1341.56 190.75 1339.74 184.31 1339.74 177.03C1339.74 170.87 1341 165.27 1343.52 160.23C1346.18 155.19 1349.68 151.2 1354.02 148.26C1358.5 145.32 1363.4 143.85 1368.72 143.85C1373.62 143.85 1377.75 145.11 1381.11 147.63C1384.47 150.01 1386.57 153.37 1387.41 157.71C1380.13 157.71 1374.32 159.67 1369.98 163.59C1365.64 167.37 1363.47 172.55 1363.47 179.13C1363.47 185.15 1365.29 189.98 1368.93 193.62C1372.57 197.26 1377.4 199.08 1383.42 199.08C1390.84 199.08 1396.93 196.63 1401.69 191.73C1406.59 186.69 1409.04 180.39 1409.04 172.83C1409.04 166.25 1407.22 160.02 1403.58 154.14C1399.94 148.26 1394.48 141.12 1387.2 132.72C1379.64 124.04 1373.9 116.62 1369.98 110.46C1366.2 104.16 1364.31 97.3 1364.31 89.88C1364.31 82.6 1366.34 76.09 1370.4 70.35C1374.46 64.47 1380.06 59.85 1387.2 56.49C1394.34 53.13 1402.39 51.45 1411.35 51.45C1422.69 51.45 1431.72 54.11 1438.44 59.43C1445.3 64.75 1448.73 71.89 1448.73 80.85C1448.73 86.73 1447.26 91.49 1444.32 95.13C1441.38 98.77 1437.53 100.59 1432.77 100.59C1427.45 100.59 1423.18 98.42 1419.96 94.08C1422.62 92.12 1424.72 89.53 1426.26 86.31C1427.8 83.09 1428.57 79.73 1428.57 76.23C1428.57 71.75 1427.24 68.18 1424.58 65.52C1421.92 62.86 1418.28 61.53 1413.66 61.53C1408.06 61.53 1403.44 63.56 1399.8 67.62C1396.3 71.54 1394.55 76.58 1394.55 82.74C1394.55 88.34 1396.16 93.59 1399.38 98.49C1402.6 103.25 1407.64 109.41 1414.5 116.97C1420.1 122.99 1424.58 128.17 1427.94 132.51C1431.44 136.85 1434.38 141.89 1436.76 147.63C1439.28 153.23 1440.54 159.32 1440.54 165.9C1440.54 174.86 1438.02 182.98 1432.98 190.26C1428.08 197.54 1421.29 203.28 1412.61 207.48C1404.07 211.68 1394.55 213.78 1384.05 213.78Z" fill="#FB6161"/>
</svg>
