<svg width="1288" height="235" viewBox="0 0 1288 235" fill="none" xmlns="http://www.w3.org/2000/svg">
<path d="M1281.67 117.924C1281.67 101.234 1260.74 85.4167 1228.66 75.608C1236.06 42.9464 1232.77 16.961 1218.27 8.6415C1214.93 6.69002 1211.02 5.76564 1206.76 5.76564V17.2177C1209.12 17.2177 1211.02 17.6799 1212.62 18.553C1219.61 22.5586 1222.64 37.811 1220.28 57.4284C1219.71 62.2558 1218.79 67.3399 1217.66 72.5267C1207.58 70.0617 1196.58 68.1616 1185.01 66.929C1178.07 57.4284 1170.87 48.8008 1163.62 41.2517C1180.38 25.6913 1196.11 17.1664 1206.81 17.1664V5.71429C1192.67 5.71429 1174.16 15.7798 1155.45 33.2404C1136.73 15.8825 1118.22 5.91971 1104.08 5.91971V17.3718C1114.72 17.3718 1130.51 25.8453 1147.27 41.3031C1140.07 48.8522 1132.87 57.4284 1126.04 66.929C1114.42 68.1616 1103.41 70.0617 1093.34 72.5781C1092.15 67.4426 1091.28 62.4612 1090.66 57.6852C1088.25 38.0677 1091.23 22.8154 1098.17 18.7584C1099.71 17.834 1101.72 17.4232 1104.08 17.4232V5.97106C1099.76 5.97106 1095.86 6.89544 1092.46 8.84692C1078.02 17.1664 1074.78 43.1005 1082.23 75.6593C1050.25 85.5194 1029.43 101.285 1029.43 117.924C1029.43 134.614 1050.35 150.432 1082.44 160.24C1075.03 192.902 1078.32 218.887 1092.82 227.207C1096.16 229.158 1100.07 230.083 1104.39 230.083C1118.53 230.083 1137.04 220.017 1155.75 202.557C1174.47 219.915 1192.98 229.877 1207.12 229.877C1211.44 229.877 1215.34 228.953 1218.74 227.002C1233.18 218.682 1236.42 192.748 1228.97 160.189C1260.84 150.38 1281.67 134.563 1281.67 117.924ZM1214.73 83.6707C1212.82 90.2954 1210.46 97.1256 1207.78 103.956C1205.68 99.8474 1203.47 95.739 1201.05 91.6306C1198.68 87.5223 1196.17 83.5166 1193.65 79.6136C1200.95 80.6921 1207.99 82.0273 1214.73 83.6707ZM1191.18 138.363C1187.17 145.296 1183.05 151.87 1178.79 157.981C1171.13 158.648 1163.36 159.008 1155.55 159.008C1147.78 159.008 1140.02 158.648 1132.41 158.032C1128.14 151.921 1123.98 145.399 1119.97 138.517C1116.06 131.79 1112.51 124.96 1109.28 118.078C1112.46 111.197 1116.06 104.315 1119.92 97.5878C1123.93 90.6549 1128.04 84.0815 1132.31 77.9703C1139.97 77.3027 1147.73 76.9432 1155.55 76.9432C1163.31 76.9432 1171.08 77.3027 1178.68 77.9189C1182.95 84.0302 1187.12 90.5522 1191.13 97.4337C1195.03 104.161 1198.58 110.991 1201.82 117.873C1198.58 124.754 1195.03 131.636 1191.18 138.363ZM1207.78 131.687C1210.56 138.569 1212.93 145.45 1214.88 152.126C1208.14 153.77 1201.05 155.156 1193.7 156.235C1196.22 152.281 1198.74 148.223 1201.1 144.064C1203.47 139.955 1205.68 135.796 1207.78 131.687ZM1155.65 186.483C1150.87 181.553 1146.09 176.058 1141.36 170.049C1145.98 170.255 1150.71 170.409 1155.5 170.409C1160.33 170.409 1165.11 170.306 1169.79 170.049C1165.16 176.058 1160.38 181.553 1155.65 186.483ZM1117.4 156.235C1110.1 155.156 1103.05 153.821 1096.32 152.178C1098.22 145.553 1100.59 138.723 1103.26 131.893C1105.37 136.001 1107.58 140.109 1109.99 144.218C1112.41 148.326 1114.88 152.332 1117.4 156.235ZM1155.39 49.3658C1160.18 54.2958 1164.96 59.7907 1169.69 65.7992C1165.06 65.5938 1160.33 65.4398 1155.55 65.4398C1150.71 65.4398 1145.93 65.5425 1141.25 65.7992C1145.88 59.7907 1150.66 54.2958 1155.39 49.3658ZM1117.35 79.6136C1114.83 83.568 1112.31 87.625 1109.94 91.7847C1107.58 95.8931 1105.37 100.001 1103.26 104.11C1100.48 97.2283 1098.12 90.3468 1096.16 83.6707C1102.9 82.0787 1109.99 80.6921 1117.35 79.6136ZM1070.82 143.91C1052.62 136.155 1040.84 125.987 1040.84 117.924C1040.84 109.862 1052.62 99.642 1070.82 91.9388C1075.24 90.0386 1080.07 88.3439 1085.06 86.7519C1087.99 96.8175 1091.85 107.294 1096.63 118.027C1091.9 128.709 1088.09 139.134 1085.21 149.148C1080.12 147.556 1075.29 145.81 1070.82 143.91ZM1098.48 217.296C1091.49 213.29 1088.45 198.037 1090.82 178.42C1091.38 173.593 1092.31 168.509 1093.44 163.322C1103.52 165.787 1114.52 167.687 1126.09 168.919C1133.03 178.42 1140.23 187.048 1147.48 194.597C1130.71 210.157 1114.98 218.682 1104.29 218.682C1101.97 218.631 1100.02 218.169 1098.48 217.296ZM1220.43 178.163C1222.85 197.781 1219.87 213.033 1212.93 217.09C1211.38 218.014 1209.38 218.425 1207.01 218.425C1196.37 218.425 1180.59 209.952 1163.83 194.494C1171.02 186.945 1178.22 178.369 1185.06 168.868C1196.68 167.636 1207.68 165.735 1217.76 163.219C1218.94 168.406 1219.87 173.387 1220.43 178.163ZM1240.23 143.91C1235.81 145.81 1230.97 147.505 1225.99 149.097C1223.05 139.031 1219.2 128.555 1214.42 117.822C1219.15 107.14 1222.95 96.7148 1225.83 86.7006C1230.92 88.2926 1235.75 90.0386 1240.28 91.9388C1258.48 99.6933 1270.25 109.862 1270.25 117.924C1270.2 125.987 1258.43 136.206 1240.23 143.91Z" fill="#FB6161"/>
<path d="M1155.78 141.938C1168.76 141.938 1179.28 131.431 1179.28 118.469C1179.28 105.507 1168.76 95 1155.78 95C1142.81 95 1132.29 105.507 1132.29 118.469C1132.29 131.431 1142.81 141.938 1155.78 141.938Z" fill="#FB6161"/>
<path d="M80.496 199C76.176 199 71.904 197.752 67.68 195.256C63.552 192.856 58.272 189.112 51.84 184.024C47.04 180.184 42.912 177.064 39.456 174.664C36.096 172.36 32.4 170.392 28.368 168.76C24.432 167.128 20.4 166.312 16.272 166.312C14.832 166.312 13.728 166.36 12.96 166.456L34.416 66.664C27.984 69.256 22.992 73.24 19.44 78.616C15.984 83.896 14.256 90.376 14.256 98.056C14.256 101.608 14.592 104.104 15.264 105.544C15.936 106.888 16.272 107.656 16.272 107.848C11.088 107.848 7.2 106.792 4.608 104.68C2.112 102.472 0.864 98.872 0.864 93.88C0.864 87.736 3.36 81.784 8.352 76.024C13.44 70.168 19.92 65.464 27.792 61.912C35.664 58.264 43.536 56.44 51.408 56.44C52.752 56.44 54.672 56.536 57.168 56.728L34.992 160.12C37.68 160.792 40.416 161.752 43.2 163C46.08 164.344 49.536 166.12 53.568 168.328C59.808 171.688 65.136 174.232 69.552 175.96C73.968 177.784 78.576 178.696 83.376 178.696C87.696 178.696 91.728 177.928 95.472 176.392C94.704 183.4 92.976 188.92 90.288 192.952C87.696 196.984 84.432 199 80.496 199ZM75.1545 163.864C68.0505 163.864 62.5305 162.04 58.5945 158.392C54.6585 154.648 52.6905 148.84 52.6905 140.968C52.6905 134.344 53.9865 127.048 56.5785 119.08C59.1705 111.112 63.3945 104.248 69.2505 98.488C75.1065 92.632 82.5465 89.704 91.5705 89.704C102.131 89.704 107.411 94.312 107.411 103.528C107.411 108.904 105.875 113.848 102.803 118.36C99.7305 122.872 95.6505 126.52 90.5625 129.304C85.4745 131.992 80.0505 133.528 74.2905 133.912C74.0985 136.792 74.0025 138.712 74.0025 139.672C74.0025 144.376 74.8185 147.592 76.4505 149.32C78.0825 150.952 80.7225 151.768 84.3705 151.768C89.5545 151.768 93.9705 150.568 97.6185 148.168C101.363 145.768 105.443 142.12 109.859 137.224H114.755C104.099 154.984 90.8985 163.864 75.1545 163.864ZM75.4425 127C78.9945 126.808 82.3545 125.56 85.5225 123.256C88.7865 120.952 91.3785 118.024 93.2985 114.472C95.3145 110.92 96.3225 107.176 96.3225 103.24C96.3225 99.304 95.1225 97.336 92.7225 97.336C89.2665 97.336 85.8585 100.36 82.4985 106.408C79.2345 112.456 76.8825 119.32 75.4425 127ZM127.108 163.864C121.636 163.864 117.076 161.992 113.428 158.248C109.78 154.504 107.956 148.648 107.956 140.68C107.956 133.576 109.348 126.136 112.132 118.36C115.012 110.488 119.236 103.864 124.804 98.488C130.468 93.016 137.188 90.28 144.964 90.28C148.9 90.28 151.828 90.952 153.748 92.296C155.668 93.64 156.628 95.416 156.628 97.624V98.632L158.212 91H178.948L168.58 139.96C168.196 141.4 168.004 142.936 168.004 144.568C168.004 148.696 169.972 150.76 173.908 150.76C176.596 150.76 178.9 149.512 180.82 147.016C182.836 144.52 184.42 141.256 185.572 137.224H191.62C188.068 147.592 183.652 154.648 178.372 158.392C173.188 162.04 167.956 163.864 162.676 163.864C158.644 163.864 155.38 162.76 152.884 160.552C150.484 158.248 149.044 154.936 148.564 150.616C145.78 154.552 142.66 157.768 139.204 160.264C135.844 162.664 131.812 163.864 127.108 163.864ZM136.468 149.896C138.868 149.896 141.22 148.792 143.524 146.584C145.924 144.28 147.556 141.16 148.42 137.224L155.332 104.68C155.332 103.432 154.852 102.232 153.892 101.08C152.932 99.832 151.444 99.208 149.428 99.208C145.588 99.208 142.132 101.464 139.06 105.976C135.988 110.392 133.588 115.768 131.86 122.104C130.132 128.344 129.268 133.864 129.268 138.664C129.268 143.464 129.94 146.536 131.284 147.88C132.724 149.224 134.452 149.896 136.468 149.896ZM195.417 91H216.153L214.281 99.928C217.545 97.048 220.473 94.84 223.065 93.304C225.753 91.768 228.633 91 231.705 91C234.777 91 237.177 92.056 238.905 94.168C240.729 96.28 241.641 98.824 241.641 101.8C241.641 104.584 240.729 107.032 238.905 109.144C237.081 111.256 234.537 112.312 231.273 112.312C229.161 112.312 227.721 111.832 226.953 110.872C226.281 109.816 225.753 108.328 225.369 106.408C225.081 105.16 224.793 104.248 224.505 103.672C224.217 103.096 223.689 102.808 222.921 102.808C220.905 102.808 219.177 103.24 217.737 104.104C216.393 104.872 214.617 106.264 212.409 108.28L200.889 163H180.153L195.417 91ZM291.75 163.864C285.894 163.864 281.574 162.328 278.79 159.256C276.102 156.088 274.758 152.2 274.758 147.592C274.758 145.576 274.998 143.32 275.478 140.824C275.958 138.232 276.438 135.736 276.918 133.336C277.494 130.936 277.878 129.4 278.07 128.728C278.838 125.368 279.558 122.056 280.23 118.792C280.902 115.528 281.238 112.888 281.238 110.872C281.238 105.976 279.51 103.528 276.054 103.528C273.558 103.528 271.35 104.776 269.43 107.272C267.51 109.672 265.974 112.84 264.822 116.776L255.03 163H234.294L249.558 91H270.294L268.71 98.488C273.51 93.112 279.126 90.424 285.558 90.424C290.454 90.424 294.342 91.768 297.222 94.456C300.102 97.144 301.542 101.224 301.542 106.696C301.542 109.48 301.206 112.6 300.534 116.056C299.862 119.416 298.902 123.544 297.654 128.44C296.886 131.416 296.166 134.344 295.494 137.224C294.918 140.008 294.63 142.216 294.63 143.848C294.63 145.768 295.062 147.256 295.926 148.312C296.79 149.368 298.278 149.896 300.39 149.896C303.27 149.896 305.574 148.888 307.302 146.872C309.03 144.76 310.758 141.544 312.486 137.224H318.534C314.982 147.784 310.854 154.888 306.15 158.536C301.542 162.088 296.742 163.864 291.75 163.864ZM336.517 83.224C333.349 83.224 330.661 82.12 328.453 79.912C326.245 77.704 325.141 75.016 325.141 71.848C325.141 68.68 326.245 65.992 328.453 63.784C330.661 61.48 333.349 60.328 336.517 60.328C339.685 60.328 342.373 61.48 344.581 63.784C346.885 65.992 348.037 68.68 348.037 71.848C348.037 75.016 346.885 77.704 344.581 79.912C342.373 82.12 339.685 83.224 336.517 83.224ZM326.725 163.864C322.117 163.864 318.373 162.424 315.493 159.544C312.709 156.664 311.317 152.344 311.317 146.584C311.317 144.184 311.701 141.064 312.469 137.224L322.261 91H342.997L332.629 139.96C332.245 141.4 332.053 142.936 332.053 144.568C332.053 146.488 332.485 147.88 333.349 148.744C334.309 149.512 335.845 149.896 337.957 149.896C340.741 149.896 343.333 148.744 345.733 146.44C348.133 144.04 349.861 140.968 350.917 137.224H356.965C353.413 147.592 348.853 154.648 343.285 158.392C337.717 162.04 332.197 163.864 326.725 163.864ZM402.843 163.864C396.987 163.864 392.667 162.328 389.883 159.256C387.195 156.088 385.851 152.2 385.851 147.592C385.851 145.576 386.091 143.32 386.571 140.824C387.051 138.232 387.531 135.736 388.011 133.336C388.587 130.936 388.971 129.4 389.163 128.728C389.931 125.368 390.651 122.056 391.323 118.792C391.995 115.528 392.331 112.888 392.331 110.872C392.331 105.976 390.603 103.528 387.147 103.528C384.651 103.528 382.443 104.776 380.523 107.272C378.603 109.672 377.067 112.84 375.915 116.776L366.123 163H345.387L360.651 91H381.387L379.803 98.488C384.603 93.112 390.219 90.424 396.651 90.424C401.547 90.424 405.435 91.768 408.315 94.456C411.195 97.144 412.635 101.224 412.635 106.696C412.635 109.48 412.299 112.6 411.627 116.056C410.955 119.416 409.995 123.544 408.747 128.44C407.979 131.416 407.259 134.344 406.587 137.224C406.011 140.008 405.723 142.216 405.723 143.848C405.723 145.768 406.155 147.256 407.019 148.312C407.883 149.368 409.371 149.896 411.483 149.896C414.363 149.896 416.667 148.888 418.395 146.872C420.123 144.76 421.851 141.544 423.579 137.224H429.627C426.075 147.784 421.947 154.888 417.243 158.536C412.635 162.088 407.835 163.864 402.843 163.864ZM448.907 199C444.395 199 440.411 197.512 436.955 194.536C433.595 191.656 431.915 187.96 431.915 183.448C431.915 179.224 432.971 175.768 435.083 173.08C437.195 170.392 439.931 168.28 443.291 166.744C446.651 165.208 451.163 163.576 456.827 161.848L458.123 155.8C453.131 161.176 447.371 163.864 440.843 163.864C435.371 163.864 430.811 161.992 427.163 158.248C423.514 154.504 421.69 148.648 421.69 140.68C421.69 133.576 423.083 126.136 425.867 118.36C428.747 110.488 432.971 103.864 438.539 98.488C444.203 93.016 450.923 90.28 458.699 90.28C462.635 90.28 465.563 90.952 467.483 92.296C469.403 93.64 470.363 95.416 470.363 97.624V97.912L471.803 91H492.683L475.115 174.52C473.195 183.736 469.787 190.12 464.891 193.672C460.091 197.224 454.763 199 448.907 199ZM450.203 149.896C452.411 149.896 454.619 148.984 456.827 147.16C459.131 145.24 460.763 142.552 461.723 139.096L469.067 104.248C468.299 100.888 466.331 99.208 463.163 99.208C459.323 99.208 455.867 101.464 452.795 105.976C449.723 110.392 447.323 115.768 445.595 122.104C443.867 128.344 443.003 133.864 443.003 138.664C443.003 143.464 443.675 146.536 445.019 147.88C446.459 149.224 448.187 149.896 450.203 149.896ZM445.595 186.184C447.323 186.184 448.955 185.272 450.491 183.448C452.027 181.72 453.227 178.888 454.091 174.952L455.819 166.456C450.731 168.184 446.795 170.2 444.011 172.504C441.227 174.808 439.835 177.784 439.835 181.432C439.835 182.584 440.411 183.64 441.562 184.6C442.715 185.656 444.059 186.184 445.595 186.184ZM586.753 165.448C579.265 165.448 575.521 162.232 575.521 155.8C575.521 153.688 575.809 151.288 576.385 148.6C577.057 145.816 577.969 142.264 579.121 137.944C580.465 133.432 581.473 129.592 582.145 126.424C582.817 123.256 583.153 120.424 583.153 117.928C583.153 111.4 580.273 108.136 574.513 108.136C572.977 108.136 571.393 108.328 569.761 108.712L558.241 163H537.505L557.089 71.416L578.401 68.536L571.345 101.8H572.497C576.241 101.8 579.697 100.504 582.865 97.912C586.033 95.32 588.481 92.104 590.209 88.264C592.033 84.328 592.945 80.488 592.945 76.744C592.945 72.328 591.601 68.728 588.913 65.944C586.321 63.064 582.385 61.624 577.105 61.624C569.329 61.624 562.513 63.016 556.657 65.8C550.801 68.584 546.241 72.616 542.977 77.896C539.809 83.176 538.225 89.416 538.225 96.616C538.225 100.168 538.561 102.664 539.233 104.104C539.905 105.448 540.241 106.216 540.241 106.408C535.057 106.408 531.169 105.352 528.577 103.24C526.081 101.032 524.833 97.432 524.833 92.44C524.833 86.296 527.329 80.344 532.321 74.584C537.409 68.728 543.889 64.024 551.761 60.472C559.633 56.824 567.505 55 575.377 55C582.577 55 588.625 56.056 593.521 58.168C598.417 60.28 602.065 63.112 604.465 66.664C606.865 70.12 608.065 73.912 608.065 78.04C608.065 82.552 606.673 87.064 603.889 91.576C601.105 96.088 597.313 99.784 592.513 102.664C596.161 103.72 598.705 105.496 600.145 107.992C601.681 110.392 602.449 113.416 602.449 117.064C602.449 119.848 602.113 122.824 601.441 125.992C600.769 129.064 599.809 132.904 598.561 137.512C597.793 140.488 597.073 143.416 596.401 146.296C595.729 149.176 595.393 151.576 595.393 153.496C595.393 155.704 595.873 157.672 596.833 159.4C597.889 161.128 599.281 162.328 601.009 163C595.153 164.632 590.401 165.448 586.753 165.448ZM631.045 163.864C623.941 163.864 618.421 162.04 614.485 158.392C610.549 154.648 608.581 148.84 608.581 140.968C608.581 134.344 609.877 127.048 612.469 119.08C615.061 111.112 619.285 104.248 625.141 98.488C630.997 92.632 638.437 89.704 647.461 89.704C658.021 89.704 663.301 94.312 663.301 103.528C663.301 108.904 661.765 113.848 658.693 118.36C655.621 122.872 651.541 126.52 646.453 129.304C641.365 131.992 635.941 133.528 630.181 133.912C629.989 136.792 629.893 138.712 629.893 139.672C629.893 144.376 630.709 147.592 632.341 149.32C633.973 150.952 636.613 151.768 640.261 151.768C645.445 151.768 649.861 150.568 653.509 148.168C657.253 145.768 661.333 142.12 665.749 137.224H670.645C659.989 154.984 646.789 163.864 631.045 163.864ZM631.333 127C634.885 126.808 638.245 125.56 641.413 123.256C644.677 120.952 647.269 118.024 649.189 114.472C651.205 110.92 652.213 107.176 652.213 103.24C652.213 99.304 651.013 97.336 648.613 97.336C645.157 97.336 641.749 100.36 638.389 106.408C635.125 112.456 632.773 119.32 631.333 127ZM682.999 163.864C677.527 163.864 672.967 161.992 669.319 158.248C665.671 154.504 663.847 148.648 663.847 140.68C663.847 133.576 665.239 126.136 668.023 118.36C670.903 110.488 675.127 103.864 680.695 98.488C686.359 93.016 693.079 90.28 700.855 90.28C704.791 90.28 707.719 90.952 709.639 92.296C711.559 93.64 712.519 95.416 712.519 97.624V98.632L714.103 91H734.839L724.471 139.96C724.087 141.4 723.895 142.936 723.895 144.568C723.895 148.696 725.863 150.76 729.799 150.76C732.487 150.76 734.791 149.512 736.711 147.016C738.727 144.52 740.311 141.256 741.463 137.224H747.511C743.959 147.592 739.543 154.648 734.263 158.392C729.079 162.04 723.847 163.864 718.567 163.864C714.535 163.864 711.271 162.76 708.775 160.552C706.375 158.248 704.935 154.936 704.455 150.616C701.671 154.552 698.551 157.768 695.095 160.264C691.735 162.664 687.703 163.864 682.999 163.864ZM692.359 149.896C694.759 149.896 697.111 148.792 699.415 146.584C701.815 144.28 703.447 141.16 704.311 137.224L711.223 104.68C711.223 103.432 710.743 102.232 709.783 101.08C708.823 99.832 707.335 99.208 705.319 99.208C701.479 99.208 698.023 101.464 694.951 105.976C691.879 110.392 689.479 115.768 687.751 122.104C686.023 128.344 685.159 133.864 685.159 138.664C685.159 143.464 685.831 146.536 687.175 147.88C688.615 149.224 690.343 149.896 692.359 149.896ZM762.108 163.864C755.004 163.864 749.484 162.04 745.548 158.392C741.612 154.648 739.644 148.84 739.644 140.968C739.644 134.344 740.94 127.048 743.532 119.08C746.22 111.112 750.444 104.248 756.204 98.488C762.06 92.632 769.452 89.704 778.38 89.704C784.14 89.704 788.22 90.952 790.62 93.448C793.116 95.944 794.364 99.112 794.364 102.952C794.364 106.312 793.644 108.904 792.204 110.728C790.764 112.552 788.94 113.464 786.732 113.464C785.1 113.464 783.42 112.888 781.692 111.736C782.844 108.568 783.42 105.736 783.42 103.24C783.42 101.416 783.084 99.976 782.412 98.92C781.74 97.864 780.732 97.336 779.388 97.336C776.508 97.336 773.628 99.688 770.748 104.392C767.868 109.096 765.516 114.808 763.692 121.528C761.868 128.248 760.956 134.296 760.956 139.672C760.956 144.376 761.772 147.592 763.404 149.32C765.036 150.952 767.676 151.768 771.324 151.768C776.508 151.768 780.924 150.568 784.572 148.168C788.316 145.768 792.396 142.12 796.812 137.224H801.708C791.052 154.984 777.852 163.864 762.108 163.864ZM810.317 163.864C805.421 163.864 801.773 162.376 799.373 159.4C797.069 156.424 795.917 152.488 795.917 147.592C795.917 145.096 796.205 142.552 796.781 139.96L805.997 96.76H801.245L802.397 91H807.149L811.469 71.128L832.781 68.248C831.917 71.896 831.437 74.056 831.341 74.728C830.669 77.416 829.517 82.84 827.885 91H836.525L835.373 96.76H826.733L817.517 139.96C817.037 142.072 816.797 143.752 816.797 145C816.797 148.456 818.477 150.184 821.837 150.184C823.565 150.184 824.813 150.04 825.581 149.752C823.661 155.32 821.405 159.064 818.813 160.984C816.221 162.904 813.389 163.864 810.317 163.864ZM860.338 192.808C853.522 192.808 848.242 190.936 844.498 187.192C840.85 183.544 839.026 178.648 839.026 172.504C839.026 167.32 840.61 162.808 843.778 158.968C846.946 155.128 851.218 153.208 856.594 153.208C860.722 153.208 864.082 153.832 866.674 155.08C869.362 156.232 870.706 158.824 870.706 162.856C870.706 164.584 870.418 166.504 869.842 168.616C868.114 167.176 866.626 166.168 865.378 165.592C864.13 165.112 862.738 164.872 861.202 164.872C858.034 164.872 855.538 165.928 853.714 168.04C851.986 170.152 851.122 172.648 851.122 175.528C851.122 178.888 852.13 181.384 854.146 183.016C856.162 184.744 858.418 185.608 860.914 185.608C863.218 185.608 865.138 185.128 866.674 184.168C868.306 183.304 869.746 181.576 870.994 178.984C872.242 176.488 873.442 172.792 874.594 167.896L897.202 65.08C890.77 67.672 885.778 71.656 882.226 77.032C878.674 82.408 876.898 88.936 876.898 96.616C876.898 100.168 877.234 102.664 877.906 104.104C878.578 105.448 878.914 106.216 878.914 106.408C873.73 106.408 869.842 105.352 867.25 103.24C864.754 101.032 863.506 97.432 863.506 92.44C863.506 86.296 866.002 80.344 870.994 74.584C876.082 68.728 882.562 64.024 890.434 60.472C898.306 56.824 906.178 55 914.05 55H919.81L898.21 157.24C895.714 169.048 891.586 177.928 885.826 183.88C880.066 189.832 871.57 192.808 860.338 192.808ZM949.061 165.592C943.013 165.592 937.685 164.536 933.077 162.424C928.469 160.312 924.917 157.384 922.421 153.64C919.925 149.8 918.677 145.384 918.677 140.392C918.677 136.168 919.541 132.328 921.269 128.872C923.093 125.416 925.493 122.68 928.469 120.664C931.541 118.648 934.901 117.64 938.549 117.64C941.909 117.64 944.741 118.504 947.045 120.232C949.349 121.864 950.789 124.168 951.365 127.144C946.373 127.144 942.389 128.488 939.413 131.176C936.437 133.768 934.949 137.32 934.949 141.832C934.949 145.96 936.197 149.272 938.693 151.768C941.189 154.264 944.501 155.512 948.629 155.512C953.717 155.512 957.893 153.832 961.157 150.472C964.517 147.016 966.197 142.696 966.197 137.512C966.197 133 964.949 128.728 962.453 124.696C959.957 120.664 956.213 115.768 951.221 110.008C946.037 104.056 942.101 98.968 939.413 94.744C936.821 90.424 935.525 85.72 935.525 80.632C935.525 75.64 936.917 71.176 939.701 67.24C942.485 63.208 946.325 60.04 951.221 57.736C956.117 55.432 961.637 54.28 967.781 54.28C975.557 54.28 981.749 56.104 986.357 59.752C991.061 63.4 993.413 68.296 993.413 74.44C993.413 78.472 992.405 81.736 990.389 84.232C988.373 86.728 985.733 87.976 982.469 87.976C978.821 87.976 975.893 86.488 973.685 83.512C975.509 82.168 976.949 80.392 978.005 78.184C979.061 75.976 979.589 73.672 979.589 71.272C979.589 68.2 978.677 65.752 976.853 63.928C975.029 62.104 972.533 61.192 969.365 61.192C965.525 61.192 962.357 62.584 959.861 65.368C957.461 68.056 956.261 71.512 956.261 75.736C956.261 79.576 957.365 83.176 959.573 86.536C961.781 89.8 965.237 94.024 969.941 99.208C973.781 103.336 976.853 106.888 979.157 109.864C981.557 112.84 983.573 116.296 985.205 120.232C986.933 124.072 987.797 128.248 987.797 132.76C987.797 138.904 986.069 144.472 982.613 149.464C979.253 154.456 974.597 158.392 968.645 161.272C962.789 164.152 956.261 165.592 949.061 165.592Z" fill="#FB6161"/>
</svg>
