<svg width="1468" height="263" viewBox="0 0 1468 263" fill="none" xmlns="http://www.w3.org/2000/svg">
<path d="M1461.67 131.924C1461.67 115.234 1440.74 99.4167 1408.66 89.608C1416.06 56.9464 1412.77 30.961 1398.27 22.6415C1394.93 20.69 1391.02 19.7656 1386.76 19.7656V31.2177C1389.12 31.2177 1391.02 31.6799 1392.62 32.553C1399.61 36.5586 1402.64 51.811 1400.28 71.4284C1399.71 76.2558 1398.79 81.3399 1397.66 86.5267C1387.58 84.0617 1376.58 82.1616 1365.01 80.9291C1358.07 71.4284 1350.87 62.8009 1343.62 55.2517C1360.38 39.6913 1376.11 31.1664 1386.81 31.1664V19.7143C1372.67 19.7143 1354.16 29.7798 1335.45 47.2404C1316.73 29.8825 1298.22 19.9197 1284.08 19.9197V31.3718C1294.72 31.3718 1310.51 39.8453 1327.27 55.3031C1320.07 62.8522 1312.87 71.4284 1306.04 80.9291C1294.42 82.1616 1283.41 84.0617 1273.34 86.5781C1272.15 81.4426 1271.28 76.4612 1270.66 71.6852C1268.25 52.0677 1271.23 36.8154 1278.17 32.7584C1279.71 31.834 1281.72 31.4232 1284.08 31.4232V19.9711C1279.76 19.9711 1275.86 20.8955 1272.46 22.8469C1258.02 31.1664 1254.78 57.1005 1262.23 89.6593C1230.25 99.5194 1209.43 115.285 1209.43 131.924C1209.43 148.615 1230.35 164.432 1262.44 174.24C1255.03 206.902 1258.32 232.888 1272.82 241.207C1276.16 243.158 1280.07 244.083 1284.39 244.083C1298.53 244.083 1317.04 234.017 1335.75 216.557C1354.47 233.915 1372.98 243.877 1387.12 243.877C1391.44 243.877 1395.34 242.953 1398.74 241.002C1413.18 232.682 1416.42 206.748 1408.97 174.189C1440.84 164.38 1461.67 148.563 1461.67 131.924ZM1394.73 97.6707C1392.82 104.295 1390.46 111.126 1387.78 117.956C1385.68 113.847 1383.47 109.739 1381.05 105.631C1378.68 101.522 1376.17 97.5166 1373.65 93.6137C1380.95 94.6921 1387.99 96.0273 1394.73 97.6707ZM1371.18 152.363C1367.17 159.296 1363.05 165.87 1358.79 171.981C1351.13 172.648 1343.36 173.008 1335.55 173.008C1327.78 173.008 1320.02 172.648 1312.41 172.032C1308.14 165.921 1303.98 159.399 1299.97 152.517C1296.06 145.79 1292.51 138.96 1289.28 132.078C1292.46 125.197 1296.06 118.315 1299.92 111.588C1303.93 104.655 1308.04 98.0815 1312.31 91.9703C1319.97 91.3027 1327.73 90.9432 1335.55 90.9432C1343.31 90.9432 1351.08 91.3027 1358.68 91.919C1362.95 98.0302 1367.12 104.552 1371.13 111.434C1375.03 118.161 1378.58 124.991 1381.82 131.873C1378.58 138.754 1375.03 145.636 1371.18 152.363ZM1387.78 145.687C1390.56 152.569 1392.93 159.45 1394.88 166.126C1388.14 167.77 1381.05 169.156 1373.7 170.235C1376.22 166.281 1378.74 162.223 1381.1 158.064C1383.47 153.955 1385.68 149.796 1387.78 145.687ZM1335.65 200.483C1330.87 195.553 1326.09 190.058 1321.36 184.049C1325.98 184.255 1330.72 184.409 1335.5 184.409C1340.33 184.409 1345.11 184.306 1349.79 184.049C1345.16 190.058 1340.38 195.553 1335.65 200.483ZM1297.4 170.235C1290.1 169.156 1283.05 167.821 1276.32 166.178C1278.22 159.553 1280.59 152.723 1283.26 145.893C1285.37 150.001 1287.58 154.109 1289.99 158.218C1292.41 162.326 1294.88 166.332 1297.4 170.235ZM1335.39 63.3658C1340.18 68.2958 1344.96 73.7908 1349.69 79.7993C1345.06 79.5938 1340.33 79.4398 1335.55 79.4398C1330.72 79.4398 1325.93 79.5425 1321.25 79.7993C1325.88 73.7908 1330.66 68.2958 1335.39 63.3658ZM1297.35 93.6137C1294.83 97.568 1292.31 101.625 1289.94 105.785C1287.58 109.893 1285.37 114.001 1283.26 118.11C1280.48 111.228 1278.12 104.347 1276.16 97.6707C1282.9 96.0787 1289.99 94.6921 1297.35 93.6137ZM1250.82 157.91C1232.62 150.155 1220.84 139.987 1220.84 131.924C1220.84 123.862 1232.62 113.642 1250.82 105.939C1255.24 104.039 1260.07 102.344 1265.06 100.752C1267.99 110.817 1271.85 121.294 1276.63 132.027C1271.9 142.709 1268.09 153.134 1265.21 163.148C1260.12 161.556 1255.29 159.81 1250.82 157.91ZM1278.48 231.296C1271.49 227.29 1268.45 212.038 1270.82 192.42C1271.38 187.593 1272.31 182.509 1273.44 177.322C1283.52 179.787 1294.52 181.687 1306.09 182.919C1313.03 192.42 1320.23 201.048 1327.48 208.597C1310.71 224.157 1294.98 232.682 1284.29 232.682C1281.97 232.631 1280.02 232.169 1278.48 231.296ZM1400.43 192.163C1402.85 211.781 1399.87 227.033 1392.93 231.09C1391.38 232.014 1389.38 232.425 1387.01 232.425C1376.37 232.425 1360.59 223.952 1343.83 208.494C1351.02 200.945 1358.22 192.369 1365.06 182.868C1376.68 181.636 1387.68 179.735 1397.76 177.219C1398.94 182.406 1399.87 187.387 1400.43 192.163ZM1420.23 157.91C1415.81 159.81 1410.97 161.505 1405.99 163.097C1403.05 153.031 1399.2 142.555 1394.42 131.822C1399.15 121.14 1402.95 110.715 1405.83 100.701C1410.92 102.293 1415.75 104.039 1420.28 105.939C1438.48 113.693 1450.25 123.862 1450.25 131.924C1450.2 139.987 1438.43 150.207 1420.23 157.91Z" fill="#FB6161"/>
<path d="M1335.78 155.938C1348.76 155.938 1359.28 145.431 1359.28 132.469C1359.28 119.507 1348.76 109 1335.78 109C1322.81 109 1312.29 119.507 1312.29 132.469C1312.29 145.431 1322.81 155.938 1335.78 155.938Z" fill="#FB6161"/>
<path d="M91.56 213.57C80.64 213.57 75.18 208.88 75.18 199.5C75.18 196.42 75.6 192.92 76.44 189C77.42 184.94 78.75 179.76 80.43 173.46C82.39 166.88 83.86 161.28 84.84 156.66C85.82 152.04 86.31 147.91 86.31 144.27C86.31 134.75 82.11 129.99 73.71 129.99C71.47 129.99 69.16 130.27 66.78 130.83L49.98 210H19.74L48.3 76.44L79.38 72.24L69.09 120.75H70.77C76.23 120.75 81.27 118.86 85.89 115.08C90.51 111.3 94.08 106.61 96.6 101.01C99.26 95.27 100.59 89.67 100.59 84.21C100.59 77.77 98.63 72.52 94.71 68.46C90.93 64.26 85.19 62.16 77.49 62.16C66.15 62.16 56.21 64.19 47.67 68.25C39.13 72.31 32.48 78.19 27.72 85.89C23.1 93.59 20.79 102.69 20.79 113.19C20.79 118.37 21.28 122.01 22.26 124.11C23.24 126.07 23.73 127.19 23.73 127.47C16.17 127.47 10.5 125.93 6.72 122.85C3.08 119.63 1.26 114.38 1.26 107.1C1.26 98.14 4.9 89.46 12.18 81.06C19.6 72.52 29.05 65.66 40.53 60.48C52.01 55.16 63.49 52.5 74.97 52.5C85.47 52.5 94.29 54.04 101.43 57.12C108.57 60.2 113.89 64.33 117.39 69.51C120.89 74.55 122.64 80.08 122.64 86.1C122.64 92.68 120.61 99.26 116.55 105.84C112.49 112.42 106.96 117.81 99.96 122.01C105.28 123.55 108.99 126.14 111.09 129.78C113.33 133.28 114.45 137.69 114.45 143.01C114.45 147.07 113.96 151.41 112.98 156.03C112 160.51 110.6 166.11 108.78 172.83C107.66 177.17 106.61 181.44 105.63 185.64C104.65 189.84 104.16 193.34 104.16 196.14C104.16 199.36 104.86 202.23 106.26 204.75C107.8 207.27 109.83 209.02 112.35 210C103.81 212.38 96.88 213.57 91.56 213.57ZM156.153 211.26C145.793 211.26 137.743 208.6 132.003 203.28C126.263 197.82 123.393 189.35 123.393 177.87C123.393 168.21 125.283 157.57 129.063 145.95C132.843 134.33 139.003 124.32 147.543 115.92C156.083 107.38 166.933 103.11 180.093 103.11C195.493 103.11 203.193 109.83 203.193 123.27C203.193 131.11 200.953 138.32 196.473 144.9C191.993 151.48 186.043 156.8 178.623 160.86C171.203 164.78 163.293 167.02 154.893 167.58C154.613 171.78 154.473 174.58 154.473 175.98C154.473 182.84 155.663 187.53 158.043 190.05C160.423 192.43 164.273 193.62 169.593 193.62C177.153 193.62 183.593 191.87 188.913 188.37C194.373 184.87 200.323 179.55 206.763 172.41H213.903C198.363 198.31 179.113 211.26 156.153 211.26ZM156.573 157.5C161.753 157.22 166.653 155.4 171.273 152.04C176.033 148.68 179.813 144.41 182.613 139.23C185.553 134.05 187.023 128.59 187.023 122.85C187.023 117.11 185.273 114.24 181.773 114.24C176.733 114.24 171.763 118.65 166.863 127.47C162.103 136.29 158.673 146.3 156.573 157.5ZM231.919 211.26C223.939 211.26 217.289 208.53 211.969 203.07C206.649 197.61 203.989 189.07 203.989 177.45C203.989 167.09 206.019 156.24 210.079 144.9C214.279 133.42 220.439 123.76 228.559 115.92C236.819 107.94 246.619 103.95 257.959 103.95C263.699 103.95 267.969 104.93 270.769 106.89C273.569 108.85 274.969 111.44 274.969 114.66V116.13L277.279 105H307.519L292.399 176.4C291.839 178.5 291.559 180.74 291.559 183.12C291.559 189.14 294.429 192.15 300.169 192.15C304.089 192.15 307.449 190.33 310.249 186.69C313.189 183.05 315.499 178.29 317.179 172.41H325.999C320.819 187.53 314.379 197.82 306.679 203.28C299.119 208.6 291.489 211.26 283.789 211.26C277.909 211.26 273.149 209.65 269.509 206.43C266.009 203.07 263.909 198.24 263.209 191.94C259.149 197.68 254.599 202.37 249.559 206.01C244.659 209.51 238.779 211.26 231.919 211.26ZM245.569 190.89C249.069 190.89 252.499 189.28 255.859 186.06C259.359 182.7 261.739 178.15 262.999 172.41L273.079 124.95C273.079 123.13 272.379 121.38 270.979 119.7C269.579 117.88 267.409 116.97 264.469 116.97C258.869 116.97 253.829 120.26 249.349 126.84C244.869 133.28 241.369 141.12 238.849 150.36C236.329 159.46 235.069 167.51 235.069 174.51C235.069 181.51 236.049 185.99 238.009 187.95C240.109 189.91 242.629 190.89 245.569 190.89ZM347.286 211.26C336.926 211.26 328.876 208.6 323.136 203.28C317.396 197.82 314.526 189.35 314.526 177.87C314.526 168.21 316.416 157.57 320.196 145.95C324.116 134.33 330.276 124.32 338.676 115.92C347.216 107.38 357.996 103.11 371.016 103.11C379.416 103.11 385.366 104.93 388.866 108.57C392.506 112.21 394.326 116.83 394.326 122.43C394.326 127.33 393.276 131.11 391.176 133.77C389.076 136.43 386.416 137.76 383.196 137.76C380.816 137.76 378.366 136.92 375.846 135.24C377.526 130.62 378.366 126.49 378.366 122.85C378.366 120.19 377.876 118.09 376.896 116.55C375.916 115.01 374.446 114.24 372.486 114.24C368.286 114.24 364.086 117.67 359.886 124.53C355.686 131.39 352.256 139.72 349.596 149.52C346.936 159.32 345.606 168.14 345.606 175.98C345.606 182.84 346.796 187.53 349.176 190.05C351.556 192.43 355.406 193.62 360.726 193.62C368.286 193.62 374.726 191.87 380.046 188.37C385.506 184.87 391.456 179.55 397.896 172.41H405.036C389.496 198.31 370.246 211.26 347.286 211.26ZM417.592 211.26C410.452 211.26 405.132 209.09 401.632 204.75C398.272 200.41 396.592 194.67 396.592 187.53C396.592 183.89 397.012 180.18 397.852 176.4L411.292 113.4H404.362L406.042 105H412.972L419.272 76.02L450.352 71.82C449.092 77.14 448.392 80.29 448.252 81.27C447.272 85.19 445.592 93.1 443.212 105H455.812L454.132 113.4H441.532L428.092 176.4C427.392 179.48 427.042 181.93 427.042 183.75C427.042 188.79 429.492 191.31 434.392 191.31C436.912 191.31 438.732 191.1 439.852 190.68C437.052 198.8 433.762 204.26 429.982 207.06C426.202 209.86 422.072 211.26 417.592 211.26ZM490.539 253.47C480.599 253.47 472.899 250.74 467.439 245.28C462.119 239.96 459.459 232.82 459.459 223.86C459.459 216.3 461.769 209.72 466.389 204.12C471.009 198.52 477.239 195.72 485.079 195.72C491.099 195.72 495.999 196.63 499.779 198.45C503.699 200.13 505.659 203.91 505.659 209.79C505.659 212.31 505.239 215.11 504.399 218.19C501.879 216.09 499.709 214.62 497.889 213.78C496.069 213.08 494.039 212.73 491.799 212.73C487.179 212.73 483.539 214.27 480.879 217.35C478.359 220.43 477.099 224.07 477.099 228.27C477.099 233.17 478.569 236.81 481.509 239.19C484.449 241.71 487.739 242.97 491.379 242.97C494.739 242.97 497.539 242.27 499.779 240.87C502.159 239.61 504.259 237.09 506.079 233.31C507.899 229.67 509.649 224.28 511.329 217.14L544.299 67.2C534.919 70.98 527.639 76.79 522.459 84.63C517.279 92.47 514.689 101.99 514.689 113.19C514.689 118.37 515.179 122.01 516.159 124.11C517.139 126.07 517.629 127.19 517.629 127.47C510.069 127.47 504.399 125.93 500.619 122.85C496.979 119.63 495.159 114.38 495.159 107.1C495.159 98.14 498.799 89.46 506.079 81.06C513.499 72.52 522.949 65.66 534.429 60.48C545.909 55.16 557.389 52.5 568.869 52.5H577.269L545.769 201.6C542.129 218.82 536.109 231.77 527.709 240.45C519.309 249.13 506.919 253.47 490.539 253.47ZM619.927 213.78C611.107 213.78 603.337 212.24 596.617 209.16C589.897 206.08 584.717 201.81 581.077 196.35C577.437 190.75 575.617 184.31 575.617 177.03C575.617 170.87 576.877 165.27 579.397 160.23C582.057 155.19 585.557 151.2 589.897 148.26C594.377 145.32 599.277 143.85 604.597 143.85C609.497 143.85 613.627 145.11 616.987 147.63C620.347 150.01 622.447 153.37 623.287 157.71C616.007 157.71 610.197 159.67 605.857 163.59C601.517 167.37 599.347 172.55 599.347 179.13C599.347 185.15 601.167 189.98 604.807 193.62C608.447 197.26 613.277 199.08 619.297 199.08C626.717 199.08 632.807 196.63 637.567 191.73C642.467 186.69 644.917 180.39 644.917 172.83C644.917 166.25 643.097 160.02 639.457 154.14C635.817 148.26 630.357 141.12 623.077 132.72C615.517 124.04 609.777 116.62 605.857 110.46C602.077 104.16 600.187 97.3 600.187 89.88C600.187 82.6 602.217 76.09 606.277 70.35C610.337 64.47 615.937 59.85 623.077 56.49C630.217 53.13 638.267 51.45 647.227 51.45C658.567 51.45 667.597 54.11 674.317 59.43C681.177 64.75 684.607 71.89 684.607 80.85C684.607 86.73 683.137 91.49 680.197 95.13C677.257 98.77 673.407 100.59 668.647 100.59C663.327 100.59 659.057 98.42 655.837 94.08C658.497 92.12 660.597 89.53 662.137 86.31C663.677 83.09 664.447 79.73 664.447 76.23C664.447 71.75 663.117 68.18 660.457 65.52C657.797 62.86 654.157 61.53 649.537 61.53C643.937 61.53 639.317 63.56 635.677 67.62C632.177 71.54 630.427 76.58 630.427 82.74C630.427 88.34 632.037 93.59 635.257 98.49C638.477 103.25 643.517 109.41 650.377 116.97C655.977 122.99 660.457 128.17 663.817 132.51C667.317 136.85 670.257 141.89 672.637 147.63C675.157 153.23 676.417 159.32 676.417 165.9C676.417 174.86 673.897 182.98 668.857 190.26C663.957 197.54 657.167 203.28 648.487 207.48C639.947 211.68 630.427 213.78 619.927 213.78ZM784.8 66.15C775.28 69.51 768 74.83 762.96 82.11C758.06 89.25 755.61 97.93 755.61 108.15C755.61 112.63 756.1 116.76 757.08 120.54C758.06 124.18 759.46 127.19 761.28 129.57C752.32 129.57 745.67 127.75 741.33 124.11C737.13 120.33 735.03 114.59 735.03 106.89C735.03 97.09 737.9 87.99 743.64 79.59C749.38 71.05 757.15 64.26 766.95 59.22C776.75 54.18 787.39 51.66 798.87 51.66C802.09 51.66 804.89 51.87 807.27 52.29C809.65 52.71 812.38 53.48 815.46 54.6L840.66 166.95L864.18 52.92H884.55L850.32 210H821.34L796.98 105.84L773.04 210H753.09L784.8 66.15ZM904.703 210.84C894.343 210.84 886.153 208.18 880.133 202.86C874.113 197.54 871.103 189.14 871.103 177.66C871.103 168.14 873.063 157.57 876.983 145.95C880.903 134.33 887.203 124.32 895.883 115.92C904.563 107.38 915.483 103.11 928.643 103.11C946.563 103.11 955.523 114.31 955.523 136.71V136.92C955.943 137.06 956.713 137.13 957.833 137.13C962.453 137.13 967.773 135.94 973.793 133.56C979.813 131.04 985.273 128.03 990.173 124.53L992.063 130.2C988.003 134.54 982.683 138.25 976.103 141.33C969.663 144.27 962.593 146.37 954.893 147.63C953.773 160.37 950.903 171.5 946.283 181.02C941.663 190.54 935.713 197.89 928.433 203.07C921.153 208.25 913.243 210.84 904.703 210.84ZM913.103 191.94C916.463 191.94 919.823 190.05 923.183 186.27C926.543 182.35 929.483 177.1 932.003 170.52C934.523 163.8 936.343 156.38 937.463 148.26C933.683 147.42 931.793 144.48 931.793 139.44C931.793 133.7 933.963 129.92 938.303 128.1C938.023 123.48 937.323 120.33 936.203 118.65C935.083 116.83 933.123 115.92 930.323 115.92C925.703 115.92 921.223 119.28 916.883 126C912.543 132.72 909.043 140.77 906.383 150.15C903.723 159.53 902.393 167.79 902.393 174.93C902.393 181.65 903.163 186.2 904.703 188.58C906.243 190.82 909.043 191.94 913.103 191.94ZM987.118 211.26C980.398 211.26 974.938 209.16 970.738 204.96C966.678 200.76 964.648 194.46 964.648 186.06C964.648 182.56 965.208 178.01 966.328 172.41L978.928 113.4H971.998L973.678 105H980.608L986.908 76.02L1017.99 71.82L1010.85 105H1023.45L1021.77 113.4H1009.17L995.728 176.4C995.168 178.5 994.888 180.74 994.888 183.12C994.888 185.92 995.518 187.95 996.778 189.21C998.178 190.33 1000.42 190.89 1003.5 190.89C1007.56 190.89 1011.34 189.21 1014.84 185.85C1018.34 182.35 1020.86 177.87 1022.4 172.41H1031.22C1026.04 187.53 1019.39 197.82 1011.27 203.28C1003.15 208.6 995.098 211.26 987.118 211.26ZM1052.34 211.26C1041.98 211.26 1033.93 208.6 1028.19 203.28C1022.45 197.82 1019.58 189.35 1019.58 177.87C1019.58 168.21 1021.47 157.57 1025.25 145.95C1029.03 134.33 1035.19 124.32 1043.73 115.92C1052.27 107.38 1063.12 103.11 1076.28 103.11C1091.68 103.11 1099.38 109.83 1099.38 123.27C1099.38 131.11 1097.14 138.32 1092.66 144.9C1088.18 151.48 1082.23 156.8 1074.81 160.86C1067.39 164.78 1059.48 167.02 1051.08 167.58C1050.8 171.78 1050.66 174.58 1050.66 175.98C1050.66 182.84 1051.85 187.53 1054.23 190.05C1056.61 192.43 1060.46 193.62 1065.78 193.62C1073.34 193.62 1079.78 191.87 1085.1 188.37C1090.56 184.87 1096.51 179.55 1102.95 172.41H1110.09C1094.55 198.31 1075.3 211.26 1052.34 211.26ZM1052.76 157.5C1057.94 157.22 1062.84 155.4 1067.46 152.04C1072.22 148.68 1076 144.41 1078.8 139.23C1081.74 134.05 1083.21 128.59 1083.21 122.85C1083.21 117.11 1081.46 114.24 1077.96 114.24C1072.92 114.24 1067.95 118.65 1063.05 127.47C1058.29 136.29 1054.86 146.3 1052.76 157.5ZM1126.85 211.26C1120.13 211.26 1114.46 210 1109.84 207.48C1105.22 204.82 1101.79 201.46 1099.55 197.4C1097.31 193.2 1096.19 188.86 1096.19 184.38C1096.19 179.76 1097.31 175.77 1099.55 172.41C1101.65 168.91 1104.24 166.39 1107.32 164.85C1112.78 155.05 1117.54 145.18 1121.6 135.24C1125.66 125.16 1129.51 114.31 1133.15 102.69L1164.23 98.49C1164.93 116.41 1166.12 135.8 1167.8 156.66C1168.5 165.06 1168.85 171.15 1168.85 174.93C1168.85 183.47 1166.68 190.47 1162.34 195.93C1158 201.39 1152.61 205.31 1146.17 207.69C1139.87 210.07 1133.43 211.26 1126.85 211.26ZM1120.13 194.67C1125.31 194.67 1129.65 193.13 1133.15 190.05C1136.65 186.97 1138.4 182 1138.4 175.14C1138.4 170.94 1137.98 165.06 1137.14 157.5C1135.74 141.54 1134.83 130.83 1134.41 125.37C1131.05 136.43 1125.38 149.66 1117.4 165.06C1120.62 166.74 1122.23 169.19 1122.23 172.41C1122.23 175.07 1121.32 177.45 1119.5 179.55C1117.82 181.65 1115.65 182.7 1112.99 182.7C1110.05 182.7 1108.16 181.79 1107.32 179.97C1107.32 185.01 1108.3 188.72 1110.26 191.1C1112.36 193.48 1115.65 194.67 1120.13 194.67Z" fill="#FB6161"/>
</svg>
